<mxfile host="Electron" modified="2024-06-10T01:27:50.835Z" agent="Mozilla/5.0 (X11; Linux x86_64) AppleWebKit/537.36 (KHTML, like Gecko) draw.io/24.5.1 Chrome/124.0.6367.207 Electron/30.0.6 Safari/537.36" etag="aK1ONj3LAXZpmS8vJ8JT" version="24.5.1" type="device">
  <diagram name="Page-1" id="FFeXLbEfhQxo2one8Vpd">
    <mxGraphModel dx="979" dy="606" grid="1" gridSize="10" guides="1" tooltips="1" connect="1" arrows="1" fold="1" page="1" pageScale="1" pageWidth="850" pageHeight="1100" background="none" math="0" shadow="0">
      <root>
        <mxCell id="0" />
        <mxCell id="1" parent="0" />
        <mxCell id="60Yj3ABj0pq_Iz6FAWQm-1" value="Store CLI (Command Line Interface)" style="text;html=1;align=center;verticalAlign=middle;resizable=0;points=[];autosize=1;strokeColor=none;fillColor=none;fontSize=16;" vertex="1" parent="1">
          <mxGeometry x="40" y="40" width="280" height="30" as="geometry" />
        </mxCell>
        <mxCell id="60Yj3ABj0pq_Iz6FAWQm-25" style="edgeStyle=none;curved=1;rounded=0;orthogonalLoop=1;jettySize=auto;html=1;fontSize=12;startSize=8;endSize=8;" edge="1" parent="1" source="60Yj3ABj0pq_Iz6FAWQm-6" target="60Yj3ABj0pq_Iz6FAWQm-10">
          <mxGeometry relative="1" as="geometry" />
        </mxCell>
        <mxCell id="60Yj3ABj0pq_Iz6FAWQm-6" value="Usuario" style="shape=umlActor;verticalLabelPosition=bottom;verticalAlign=top;html=1;outlineConnect=0;" vertex="1" parent="1">
          <mxGeometry x="60" y="180" width="30" height="60" as="geometry" />
        </mxCell>
        <mxCell id="60Yj3ABj0pq_Iz6FAWQm-19" style="edgeStyle=none;curved=1;rounded=0;orthogonalLoop=1;jettySize=auto;html=1;fontSize=12;startSize=8;endSize=8;" edge="1" parent="1" source="60Yj3ABj0pq_Iz6FAWQm-8" target="60Yj3ABj0pq_Iz6FAWQm-15">
          <mxGeometry relative="1" as="geometry">
            <Array as="points">
              <mxPoint x="700" y="350" />
            </Array>
          </mxGeometry>
        </mxCell>
        <mxCell id="60Yj3ABj0pq_Iz6FAWQm-27" style="edgeStyle=none;curved=1;rounded=0;orthogonalLoop=1;jettySize=auto;html=1;fontSize=12;startSize=8;endSize=8;" edge="1" parent="1" source="60Yj3ABj0pq_Iz6FAWQm-10" target="60Yj3ABj0pq_Iz6FAWQm-8">
          <mxGeometry relative="1" as="geometry" />
        </mxCell>
        <mxCell id="60Yj3ABj0pq_Iz6FAWQm-10" value="" style="fontColor=#0066CC;verticalAlign=top;verticalLabelPosition=bottom;labelPosition=center;align=center;html=1;outlineConnect=0;fillColor=#CCCCCC;strokeColor=#6881B3;gradientColor=none;gradientDirection=north;strokeWidth=2;shape=mxgraph.networks.pc;" vertex="1" parent="1">
          <mxGeometry x="170" y="175" width="100" height="70" as="geometry" />
        </mxCell>
        <mxCell id="60Yj3ABj0pq_Iz6FAWQm-21" value="" style="group" vertex="1" connectable="0" parent="1">
          <mxGeometry x="340" y="370" width="240" height="220" as="geometry" />
        </mxCell>
        <mxCell id="60Yj3ABj0pq_Iz6FAWQm-15" value="" style="rounded=0;whiteSpace=wrap;html=1;" vertex="1" parent="60Yj3ABj0pq_Iz6FAWQm-21">
          <mxGeometry y="30" width="240" height="130" as="geometry" />
        </mxCell>
        <mxCell id="60Yj3ABj0pq_Iz6FAWQm-16" style="edgeStyle=none;curved=1;rounded=0;orthogonalLoop=1;jettySize=auto;html=1;exitX=0;exitY=0.5;exitDx=0;exitDy=0;fontSize=12;startSize=8;endSize=8;" edge="1" parent="60Yj3ABj0pq_Iz6FAWQm-21" source="60Yj3ABj0pq_Iz6FAWQm-15" target="60Yj3ABj0pq_Iz6FAWQm-15">
          <mxGeometry relative="1" as="geometry" />
        </mxCell>
        <mxCell id="60Yj3ABj0pq_Iz6FAWQm-18" value="Start-menu" style="text;html=1;align=center;verticalAlign=middle;resizable=0;points=[];autosize=1;strokeColor=none;fillColor=none;fontSize=16;" vertex="1" parent="60Yj3ABj0pq_Iz6FAWQm-21">
          <mxGeometry width="100" height="30" as="geometry" />
        </mxCell>
        <mxCell id="60Yj3ABj0pq_Iz6FAWQm-23" value="Ingresa una las opciones:&lt;div&gt;(1) Ver catalogo&lt;/div&gt;&lt;div&gt;(2) Crear Orden de compra&amp;nbsp;&lt;/div&gt;&lt;div&gt;(3) Ver orden de compra&amp;nbsp;&lt;/div&gt;&lt;div&gt;(4) Salir&lt;/div&gt;" style="text;html=1;align=left;verticalAlign=middle;resizable=0;points=[];autosize=1;strokeColor=none;fillColor=none;fontSize=16;" vertex="1" parent="60Yj3ABj0pq_Iz6FAWQm-21">
          <mxGeometry x="10" y="40" width="220" height="110" as="geometry" />
        </mxCell>
        <mxCell id="60Yj3ABj0pq_Iz6FAWQm-26" value="" style="group" vertex="1" connectable="0" parent="1">
          <mxGeometry x="340" y="90" width="240" height="270" as="geometry" />
        </mxCell>
        <mxCell id="60Yj3ABj0pq_Iz6FAWQm-8" value="" style="rounded=0;whiteSpace=wrap;html=1;" vertex="1" parent="60Yj3ABj0pq_Iz6FAWQm-26">
          <mxGeometry y="30" width="240" height="240" as="geometry" />
        </mxCell>
        <mxCell id="60Yj3ABj0pq_Iz6FAWQm-9" style="edgeStyle=none;curved=1;rounded=0;orthogonalLoop=1;jettySize=auto;html=1;exitX=0;exitY=0.5;exitDx=0;exitDy=0;fontSize=12;startSize=8;endSize=8;" edge="1" parent="60Yj3ABj0pq_Iz6FAWQm-26" source="60Yj3ABj0pq_Iz6FAWQm-8" target="60Yj3ABj0pq_Iz6FAWQm-8">
          <mxGeometry relative="1" as="geometry" />
        </mxCell>
        <mxCell id="60Yj3ABj0pq_Iz6FAWQm-12" value="&lt;h1 style=&quot;margin-top: 0px;&quot;&gt;Misicast&lt;/h1&gt;&lt;p&gt;Bienvenidos a nuesta tienda virtual local. Te ofrecemos productos para damas y caballeros, perfumes y carteras. Puedes realizar tus pedidos personalizados y lo traeremos por ti desde USA. Envios a nivel nacional. Siguenos en @misicast_.&lt;/p&gt;&lt;p&gt;Tel: +584141234567&lt;/p&gt;&lt;p&gt;&lt;br&gt;Press key to continue&lt;/p&gt;" style="text;html=1;whiteSpace=wrap;overflow=hidden;rounded=0;" vertex="1" parent="60Yj3ABj0pq_Iz6FAWQm-26">
          <mxGeometry x="10" y="50" width="220" height="210" as="geometry" />
        </mxCell>
        <mxCell id="60Yj3ABj0pq_Iz6FAWQm-14" value="Start" style="text;html=1;align=center;verticalAlign=middle;resizable=0;points=[];autosize=1;strokeColor=none;fillColor=none;fontSize=16;" vertex="1" parent="60Yj3ABj0pq_Iz6FAWQm-26">
          <mxGeometry width="60" height="30" as="geometry" />
        </mxCell>
      </root>
    </mxGraphModel>
  </diagram>
</mxfile>
